<svg id="Calque_1" data-name="Calque 1" xmlns="http://www.w3.org/2000/svg" viewBox="0 0 600 200"><defs><style>.cls-1{fill:none;}.cls-2,.cls-3{fill:#fff;}.cls-2{fill-rule:evenodd;}.cls-3{font-size:57px;font-family:Pacifico-Regular, Pacifico;}.cls-4{letter-spacing:-0.01em;}.cls-5{letter-spacing:-0.01em;}.cls-6{letter-spacing:0em;}.cls-7{letter-spacing:-0.02em;}.cls-8{letter-spacing:0.01em;}.cls-9{letter-spacing:0em;}.cls-10{letter-spacing:-0.01em;}</style></defs><rect class="cls-1" width="600" height="200"/><path id="_4" data-name="4" class="cls-2" d="M6980.18,7248.52a81.51,81.51,0,0,0,8.88-1.11,59.36,59.36,0,0,0,13.36-4,44.3,44.3,0,0,0,10.63-6.6,41.14,41.14,0,0,0,8.07-9.15,45.88,45.88,0,0,0,4-7.68h0a52.47,52.47,0,0,0,2.66-8.68,54.66,54.66,0,0,0,1-6.53c.16-1.77.19-3.23.19-4.15,0-23.05-7.45-39.82-29.88-49.47V7139.5l2.22.85c28.82,11.09,39.29,31.44,39.29,60.25,0,1,0,2.71-.25,4.91h0a63.45,63.45,0,0,1-1.18,7.65,62.52,62.52,0,0,1-2.81,9.41,56,56,0,0,1-5.17,10.11,57,57,0,0,1-9.35,11.06,52.74,52.74,0,0,1-14.07,9.2,71.63,71.63,0,0,1-16.07,4.93,95.6,95.6,0,0,1-11.54,1.41v-10.76Z" transform="translate(-6900 -7100)"/><path id="_3" data-name="3" class="cls-2" d="M6980.18,7170.76a37.65,37.65,0,0,1,8,4.25,28.93,28.93,0,0,1,9.56,11.16,30.86,30.86,0,0,1,2.09,5.74,31.74,31.74,0,0,1,.69,3.58,27.12,27.12,0,0,1,.24,3.47h0v.77l-.05.94h0l0,.32-.14,1.69h11.76v-1.6l.06-1.18v-.06l0-.86v0a33.7,33.7,0,0,0-.21-3.54h0a43.43,43.43,0,0,0-1-5.55,38.64,38.64,0,0,0-2.72-7.41,38.14,38.14,0,0,0-4.13-6.65,45.48,45.48,0,0,0-20.06-14.76q-2-.73-4.11-1.38Z" transform="translate(-6900 -7100)"/><path id="_2" data-name="2" class="cls-2" d="M6959.56,7248.76H6973q3.73,0,7.14-.24v10.76q-3.45.23-7.14.22h-25.11v-67.7h11.63v57Z" transform="translate(-6900 -7100)"/><path id="_1" data-name="1" class="cls-2" d="M6980.18,7159.67a73.07,73.07,0,0,0-9.27-2.07,99.18,99.18,0,0,0-15.54-1.15h-34.76v77.89h11.63v-67.47h23.36a85.89,85.89,0,0,1,13.13.93,55.15,55.15,0,0,1,10.92,2.76h0l.52.2Z" transform="translate(-6900 -7100)"/><text id="titre" class="cls-3" transform="translate(162.29 117.72) scale(0.92 1)"><tspan class="cls-4">D</tspan><tspan class="cls-5" x="47.08" y="0">y</tspan><tspan class="cls-6" x="73.76" y="0">namic</tspan><tspan class="cls-7" x="206.22" y="0">D</tspan><tspan class="cls-8" x="252.74" y="0">a</tspan><tspan class="cls-9" x="280.1" y="0">v</tspan><tspan class="cls-10" x="305.69" y="0">S</tspan><tspan x="344.62" y="0">tudio</tspan></text></svg>